nColumns=19
nRows=69
DataType=double
version=3
OpenSimVersion=4.1
endheader
time	ground_force_calcn_r_vx	ground_force_calcn_r_vy	ground_force_calcn_r_vz	ground_force_calcn_r_px	ground_force_calcn_r_py	ground_force_calcn_r_pz	ground_force_calcn_r_mx	ground_force_calcn_r_my	ground_force_calcn_r_mz	ground_force_calcn_l_vx	ground_force_calcn_l_vy	ground_force_calcn_l_vz	ground_force_calcn_l_px	ground_force_calcn_l_py	ground_force_calcn_l_pz	ground_force_calcn_l_mx	ground_force_calcn_l_my	ground_force_calcn_l_mz
0.05	0	0	0	0	0	0	0	0	0	211.842	462.055	11.9562	0.602754	0	-0.67354	-7.9559	-17.3528	-0.449023
0.058333	0	0	0	0	0	0	0	0	0	170.04	314.907	4.5261	0.57435	0	-0.673344	-5.51972	-10.2223	-0.146923
0.066667	0	0	0	0	0	0	0	0	0	115.399	182.337	-0.122375	0.538666	0	-0.670595	-2.8687	-4.53271	0.00304212
0.075	0	0	0	0	0	0	0	0	0	61.2948	91.3191	-0.250748	0.526227	0	-0.656351	-0.479102	-0.713782	0.00195993
0.083333	0	0	0	0	0	0	0	0	0	23.6895	42.8152	2.06148	0.606723	0	-0.616559	1.04534	1.8893	0.0909665
0.091667	0	0	0	0	0	0	0	0	0	6.10565	20.6634	3.31814	0.743164	0	-0.568347	1.12506	3.80755	0.611416
0.1	0	0	0	0	0	0	0	0	0	0	0	0	0	0	0	0	0	0
0.108333	0	0	0	0	0	0	0	0	0	0	0	0	0	0	0	0	0	0
0.116667	0	0	0	0	0	0	0	0	0	0	0	0	0	0	0	0	0	0
0.125	0	0	0	0	0	0	0	0	0	0	0	0	0	0	0	0	0	0
0.133333	0	0	0	0	0	0	0	0	0	0	0	0	0	0	0	0	0	0
0.141667	0	0	0	0	0	0	0	0	0	0	0	0	0	0	0	0	0	0
0.15	0	0	0	0	0	0	0	0	0	0	0	0	0	0	0	0	0	0
0.158333	0	0	0	0	0	0	0	0	0	0	0	0	0	0	0	0	0	0
0.166667	-3.07936	14.3496	1.89301	1.01854	0	-0.648937	-0.721284	3.36112	0.443402	0	0	0	0	0	0	0	0	0
0.175	-7.01458	34.8248	-0.809718	1.11255	0	-0.633751	-1.07237	5.32391	-0.123787	0	0	0	0	0	0	0	0	0
0.183333	-17.1524	96.2545	-6.44501	1.13107	0	-0.614692	-1.26036	7.0728	-0.47358	0	0	0	0	0	0	0	0	0
0.191667	-38.0807	252.673	-12.9023	1.13924	0	-0.611576	-1.24531	8.26287	-0.421929	0	0	0	0	0	0	0	0	0
0.2	-69.6339	525.95	-16.2319	1.13798	0	-0.615364	-1.11889	8.45102	-0.260816	0	0	0	0	0	0	0	0	0
0.208333	-99.7272	831.754	-11.9943	1.12852	0	-0.619858	-0.898878	7.49691	-0.108109	0	0	0	0	0	0	0	0	0
0.216667	-124.143	1046.49	1.53417	1.11498	0	-0.62326	-0.662142	5.58163	0.00818277	0	0	0	0	0	0	0	0	0
0.225	-163.213	1155.75	19.7583	1.09976	0	-0.62494	-0.449627	3.18391	0.0544312	0	0	0	0	0	0	0	0	0
0.233333	-212.749	1235.08	33.5539	1.08115	0	-0.625249	-0.165014	0.957966	0.0260254	0	0	0	0	0	0	0	0	0
0.241667	-231.41	1343.01	36.8166	1.05286	0	-0.625604	0.0966402	-0.560863	-0.0153752	0	0	0	0	0	0	0	0	0
0.25	-203.5	1487.53	31.2217	1.01591	0	-0.626492	0.152667	-1.11596	-0.0234227	0	0	0	0	0	0	0	0	0
0.258333	-155.157	1638.75	22.4057	0.979711	0	-0.62682	0.0632837	-0.668397	-0.00913859	0	0	0	0	0	0	0	0	0
0.266667	-111.744	1758.35	13.3969	0.948568	0	-0.625971	-0.03665	0.576707	0.00439393	0	0	0	0	0	0	0	0	0
0.275	-75.0336	1831.51	3.97011	0.919281	0	-0.624678	-0.0915723	2.23521	0.0048452	0	0	0	0	0	0	0	0	0
0.283333	-36.8738	1866.05	-5.34306	0.888647	0	-0.623748	-0.0764709	3.86992	-0.0110807	0	0	0	0	0	0	0	0	0
0.291667	2.00645	1869.61	-12.1261	0.857492	0	-0.623111	0.00546154	5.08907	-0.0330071	0	0	0	0	0	0	0	0	0
0.3	38.7897	1841.15	-14.9454	0.826932	0	-0.622484	0.118498	5.62449	-0.0456562	0	0	0	0	0	0	0	0	0
0.308333	79.8215	1777.69	-14.6061	0.79508	0	-0.622155	0.241187	5.37142	-0.0441336	0	0	0	0	0	0	0	0	0
0.316667	132.724	1677.28	-11.9841	0.759293	0	-0.622363	0.347063	4.38598	-0.0313377	0	0	0	0	0	0	0	0	0
0.325	195.217	1543.03	-6.7792	0.7201	0	-0.62292	0.362642	2.86639	-0.0125933	0	0	0	0	0	0	0	0	0
0.333333	250.727	1384.85	0.829387	0.681891	0	-0.623827	0.203269	1.12272	0.000672402	0	0	0	0	0	0	0	0	0
0.341667	282.46	1207.69	8.98215	0.647129	0	-0.625098	-0.117755	-0.503472	-0.00374457	0	0	0	0	0	0	0	0	0
0.35	288.244	1007.51	15.4369	0.613441	0	-0.626249	-0.496372	-1.73498	-0.0265831	0	0	0	0	0	0	0	0	0
0.358333	273.109	788.415	19.2115	0.579298	0	-0.626856	-0.830382	-2.39715	-0.058412	0	0	0	0	0	0	0	0	0
0.366667	239.138	570.342	20.5633	0.548237	0	-0.627028	-1.02742	-2.45037	-0.0883467	0	0	0	0	0	0	0	0	0
0.375	188.398	376.468	19.9544	0.524763	0	-0.62635	-1.00562	-2.00948	-0.106511	0	0	0	0	0	0	0	0	0
0.383333	129.361	223.693	17.5543	0.511339	0	-0.6233	-0.746127	-1.29021	-0.101249	0	0	0	0	0	0	0	0	0
0.391667	74.993	118.646	13.7827	0.511851	0	-0.616668	-0.31968	-0.505764	-0.0587528	0	0	0	0	0	0	0	0	0
0.4	34.8511	56.1676	9.79791	0.526737	0	-0.60446	0.140799	0.226918	0.0395837	0	0	0	0	0	0	0	0	0
0.408333	11.873	24.524	6.84122	0.530234	0	-0.578392	0.446009	0.921245	0.256991	0	0	0	0	0	0	0	0	0
0.416667	2.56807	11.8628	5.22321	0.51436	0	-0.559856	0.322468	1.48959	0.65587	0	0	0	0	0	0	0	0	0
0.425	0	0	0	0	0	0	0	0	0	0	0	0	0	0	0	0	0	0
0.433333	0	0	0	0	0	0	0	0	0	0	0	0	0	0	0	0	0	0
0.441667	0	0	0	0	0	0	0	0	0	0	0	0	0	0	0	0	0	0
0.45	0	0	0	0	0	0	0	0	0	0	0	0	0	0	0	0	0	0
0.458333	0	0	0	0	0	0	0	0	0	0	0	0	0	0	0	0	0	0
0.466667	0	0	0	0	0	0	0	0	0	0	0	0	0	0	0	0	0	0
0.475	0	0	0	0	0	0	0	0	0	0	0	0	0	0	0	0	0	0
0.483333	0	0	0	0	0	0	0	0	0	0	0	0	0	0	0	0	0	0
0.491667	0	0	0	0	0	0	0	0	0	-4.17739	14.5563	3.2422	1.00269	0	-0.642127	-0.204342	0.712039	0.158596
0.5	0	0	0	0	0	0	0	0	0	-9.94559	44.082	3.80252	1.10422	0	-0.639601	-0.140936	0.624674	0.0538845
0.508333	0	0	0	0	0	0	0	0	0	-24.5476	128.074	4.30701	1.13194	0	-0.643988	-0.155177	0.809616	0.0272267
0.516667	0	0	0	0	0	0	0	0	0	-48.5715	315.387	4.46393	1.13647	0	-0.644838	-0.225918	1.46695	0.0207629
0.525	0	0	0	0	0	0	0	0	0	-78.0501	619.847	3.11173	1.13163	0	-0.645075	-0.336939	2.67586	0.0134332
0.533333	0	0	0	0	0	0	0	0	0	-110.372	943.692	-1.89396	1.12151	0	-0.6455	-0.507714	4.341	-0.00871225
0.541667	0	0	0	0	0	0	0	0	0	-145.845	1133.74	-10.9867	1.10818	0	-0.645766	-0.793209	6.16609	-0.0597536
0.55	0	0	0	0	0	0	0	0	0	-186.457	1171.84	-19.5439	1.09275	0	-0.646218	-1.22691	7.71084	-0.128601
0.558333	0	0	0	0	0	0	0	0	0	-228.847	1192.63	-19.5491	1.07396	0	-0.647435	-1.64837	8.59042	-0.140811
0.566667	0	0	0	0	0	0	0	0	0	-251.052	1298.45	-7.78757	1.05028	0	-0.648701	-1.68228	8.70085	-0.052184
0.575	0	0	0	0	0	0	0	0	0	-234.518	1471.17	8.96536	1.02142	0	-0.649482	-1.28406	8.05513	0.0490881
0.583333	0	0	0	0	0	0	0	0	0	-192.337	1637.47	21.2122	0.98973	0	-0.650381	-0.788905	6.71637	0.0870057
0.591667	0	0	0	0	0	0	0	0	0	-143.359	1754.75	27.753	0.958179	0	-0.651582	-0.40299	4.93271	0.0780153
0.6	0	0	0	0	0	0	0	0	0	-99.2554	1826.5	34.3435	0.929276	0	-0.652578	-0.163893	3.01596	0.0567091
0.608333	0	0	0	0	0	0	0	0	0	-65.1299	1861.02	42.9187	0.903502	0	-0.653167	-0.0438982	1.25435	0.0289277
0.616667	0	0	0	0	0	0	0	0	0	-33.2815	1856.8	48.6657	0.877424	0	-0.65388	0.00206239	-0.115062	-0.00301572
